<svg width="15" height="12" viewBox="0 0 15 12" fill="none" xmlns="http://www.w3.org/2000/svg">
<path d="M2.42587 9.25063C2.51481 9.16123 2.6371 9.10907 2.76681 9.10907H14.5294C14.7443 9.10907 14.8518 9.36985 14.6999 9.52259L12.3763 11.8584C12.2873 11.9478 12.165 12 12.0353 12H0.272729C0.0577859 12 -0.0496857 11.7392 0.102257 11.5865L2.42587 9.25063Z" fill="#00FFA3"/>
<path d="M2.42587 0.529444C2.51852 0.440034 2.64081 0.387878 2.76681 0.387878H14.5294C14.7443 0.387878 14.8518 0.648657 14.6999 0.801399L12.3763 3.13723C12.2873 3.22664 12.165 3.2788 12.0353 3.2788H0.272729C0.0577859 3.2788 -0.0496857 3.01802 0.102257 2.86528L2.42587 0.529444Z" fill="#00FFA3"/>
<path d="M12.3763 4.86209C12.2873 4.77268 12.165 4.72052 12.0353 4.72052H0.272729C0.0577859 4.72052 -0.0496857 4.9813 0.102257 5.13404L2.42587 7.46987C2.51481 7.55928 2.6371 7.61144 2.76681 7.61144H14.5294C14.7443 7.61144 14.8518 7.35066 14.6999 7.19792L12.3763 4.86209Z" fill="#00FFA3"/>
</svg>
