<svg width="12" height="11" viewBox="0 0 12 11" fill="none" xmlns="http://www.w3.org/2000/svg">
<path d="M4.67206 4.77382V2.51151H1.60368V0.528503H10.1779V2.53944H7.10956V4.77382H4.67206Z" fill="#00A478"/>
<path fill-rule="evenodd" clip-rule="evenodd" d="M0.284561 5.02517C0.284561 4.27107 2.75074 3.65662 5.81912 3.65662C8.8875 3.65662 11.3537 4.27107 11.3537 5.02517C11.3537 5.77927 8.8875 6.39373 5.81912 6.39373C2.75074 6.39373 0.284561 5.77927 0.284561 5.02517ZM10.8949 5.02517C10.6941 4.74587 9.03088 3.88005 5.81912 3.88005C2.60735 3.88005 0.94412 4.71794 0.743385 5.02517C0.94412 5.30447 2.60735 5.72341 5.81912 5.72341C9.05956 5.72341 10.6941 5.30447 10.8949 5.02517Z" fill="#00A478"/>
<path d="M7.10956 5.47206V3.908C6.70809 3.88007 6.27794 3.85214 5.8478 3.85214C5.44633 3.85214 5.07353 3.85214 4.70074 3.88007V5.44413C5.04485 5.44413 5.44633 5.47206 5.8478 5.47206C6.27794 5.49999 6.70809 5.49999 7.10956 5.47206Z" fill="#00A478"/>
<path d="M5.81912 6.39375C5.41765 6.39375 5.04485 6.39375 4.67206 6.36582V10.5273H7.08088V6.33789C6.67941 6.36582 6.24926 6.39375 5.81912 6.39375Z" fill="#00A478"/>
</svg>
